<?xml version="1.0" encoding="UTF-8"?>
<svg width="700pt" height="700pt" version="1.1" viewBox="0 0 700 700" xmlns="http://www.w3.org/2000/svg" xmlns:xlink="http://www.w3.org/1999/xlink">
 <g>
  <path d="m627.67 269.5c-9.332 18.668-21 37.332-35 56-4.668 9.332-14 18.668-4.668 32.668 7 9.332 23.332 9.332 32.668 0 16.332-28 35-56 51.332-86.332 7-9.332 11.668-18.668 18.668-28 4.668-9.332 14-18.668 4.668-32.668-9.332-11.668-21-7-35-4.668-30.332 4.668-93.332 4.668-128.33 7-30.332 0-30.332 25.668-16.332 37.332 4.668 2.332 11.668 2.332 21 2.332 14 0 28-2.332 44.332-2.332-2.332 4.668-46.668 32.668-51.332 35-16.332 11.668-32.668 23.332-49 35-18.668 14-79.332 63-107.33 65.332 7-18.668 37.332-49 51.332-86.332s-14-72.332-42-86.332c-65.332-32.668-156.33 32.668-193.67 60.668-49 39.668-109.67 74.668-158.67 112-9.332 7-32.668 18.668-30.332 35 2.332 9.332 9.332 16.332 18.668 16.332 11.668 0 16.332-7 23.332-11.668 53.668-37.332 107.33-74.668 161-112 35-28 142.33-107.33 179.67-49 23.332 37.332-65.332 95.668-53.668 137.67 4.668 18.668 23.332 25.668 46.668 23.332 32.668-2.332 70-30.332 91-44.332 7-4.668 149.33-107.33 161-112z" fill-rule="evenodd"/>
  <use y="472.5" xlink:href="#u"/>
  <use x="8.5625" y="472.5" xlink:href="#b"/>
  <use x="14.316406" y="472.5" xlink:href="#a"/>
  <use x="22.226562" y="472.5" xlink:href="#l"/>
  <use x="30.101562" y="472.5" xlink:href="#d"/>
  <use x="35.679688" y="472.5" xlink:href="#a"/>
  <use x="43.589844" y="472.5" xlink:href="#k"/>
  <use x="56.003906" y="472.5" xlink:href="#j"/>
  <use x="64.355469" y="472.5" xlink:href="#i"/>
  <use x="76.019531" y="472.5" xlink:href="#h"/>
  <use x="83.992188" y="472.5" xlink:href="#b"/>
  <use x="89.746094" y="472.5" xlink:href="#a"/>
  <use x="97.65625" y="472.5" xlink:href="#t"/>
  <use x="104.601562" y="472.5" xlink:href="#g"/>
  <use x="112.90625" y="472.5" xlink:href="#s"/>
  <use x="116.90625" y="472.5" xlink:href="#f"/>
  <use x="123.820312" y="472.5" xlink:href="#c"/>
  <use x="131.835938" y="472.5" xlink:href="#e"/>
  <use y="484.167969" xlink:href="#r"/>
  <use x="5.074219" y="484.167969" xlink:href="#b"/>
  <use x="10.828125" y="484.167969" xlink:href="#c"/>
  <use x="18.84375" y="484.167969" xlink:href="#q"/>
  <use x="35.0625" y="484.167969" xlink:href="#d"/>
  <use x="40.640625" y="484.167969" xlink:href="#g"/>
  <use x="48.945312" y="484.167969" xlink:href="#a"/>
  <use x="60.917969" y="484.167969" xlink:href="#p"/>
  <use x="70.683594" y="484.167969" xlink:href="#c"/>
  <use x="78.699219" y="484.167969" xlink:href="#o"/>
  <use x="87.003906" y="484.167969" xlink:href="#e"/>
  <use x="99.371094" y="484.167969" xlink:href="#n"/>
  <use x="107.921875" y="484.167969" xlink:href="#b"/>
  <use x="113.675781" y="484.167969" xlink:href="#c"/>
  <use x="121.691406" y="484.167969" xlink:href="#m"/>
  <use x="125.691406" y="484.167969" xlink:href="#a"/>
  <use x="133.601562" y="484.167969" xlink:href="#f"/>
  <use x="140.519531" y="484.167969" xlink:href="#d"/>
 </g>
</svg>
